<?xml version="1.0" encoding="utf-8"?>
<!-- Generator: Adobe Illustrator 24.3.0, SVG Export Plug-In . SVG Version: 6.00 Build 0)  -->
<svg version="1.1" id="Capa_1" xmlns="http://www.w3.org/2000/svg" xmlns:xlink="http://www.w3.org/1999/xlink" x="0px" y="0px"
	 viewBox="0 0 841.9 595.3" style="enable-background:new 0 0 841.9 595.3;" xml:space="preserve">
<style type="text/css">
	.st0{fill:#FFFFFF;}
</style>
<g>
	<g>
		<path class="st0" d="M235,389.8l-12.5-21.4c-1.1-1.8-1.9-3.5-1.9-3.5h-0.1c0,0,0.1,1.8,0.1,3.6v21.3h-3.3v-29.3h4.1l12,20.6
			c1.1,1.8,1.7,3.1,1.7,3.1h0.1c0,0-0.1-1.4-0.1-3.2v-20.5h3.3v29.3H235L235,389.8z"/>
		<path class="st0" d="M260.2,390.3c-5.6,0-9.1-3.8-9.1-8.8v-21h3.9v20.9c0,3.7,2.5,5.8,5.4,5.8s5.4-2.1,5.4-5.8v-20.9h3.6v21
			C269.3,386.5,265.8,390.3,260.2,390.3z"/>
		<path class="st0" d="M289.8,363.2v26.7h-3.9v-26.7H280v-2.6h15.6v2.6H289.8z"/>
		<path class="st0" d="M319.9,389.8l-9.6-13.7h-0.1v13.7h-3.9v-28.2c1.5-0.9,4.1-1.6,7.3-1.6c6.6,0,10.1,3.2,10.1,8.7
			c0,5-3.5,8-8.9,8v0.1l9.6,12.9h-4.5V389.8z M313.5,362.4c-1.5,0-2.6,0.2-3.3,0.6v12.3c0.4,0.1,1.5,0.3,2.5,0.3
			c4.8,0,7.1-2.4,7.1-6.6C319.8,364.5,317.8,362.4,313.5,362.4z"/>
		<path class="st0" d="M335.6,389.8v-29.3h3.9v29.3H335.6z"/>
		<path class="st0" d="M362.3,390.3c-7,0-11-6.8-11-15.1c0-8.1,3.9-15.1,11-15.1c2.6,0,4.4,0.7,5.7,1.6l-0.9,2.3
			c-0.9-0.5-2.3-1.1-4.1-1.1c-5.6,0-7.6,6.1-7.6,12.3c0,6.4,2.2,12.1,7.5,12.1c1.8,0,3-0.5,4.1-1.1l1,2.5
			C366.8,389.6,364.7,390.3,362.3,390.3z"/>
		<path class="st0" d="M378.9,389.8v-29.3h3.9v29.3H378.9z"/>
		<path class="st0" d="M405.3,390.3c-7.6,0-10.6-6.7-10.6-15.1c0-8.3,3-15.1,10.6-15.1s10.6,6.8,10.6,15.1
			C415.9,383.6,412.9,390.3,405.3,390.3z M405.3,362.7c-5.4,0-6.6,6.4-6.6,12.4s1.1,12.3,6.6,12.3s6.6-6.4,6.6-12.3
			C411.9,369.1,410.6,362.7,405.3,362.7z M405.2,358.3h-2.1l3-5.8c1.5-0.9,3.6-1,4,0L405.2,358.3z"/>
		<path class="st0" d="M445.1,389.8l-12.5-21.4c-1.1-1.8-1.9-3.5-1.9-3.5h-0.1c0,0,0.1,1.8,0.1,3.6v21.3h-3.3v-29.3h4.1l12,20.6
			c1.1,1.8,1.7,3.1,1.7,3.1h0.1c0,0-0.1-1.4-0.1-3.2v-20.5h3.3v29.3H445.1L445.1,389.8z"/>
		<path class="st0" d="M502.8,376.8v13h-3.9v-13l-8-16.3h4.2l5.8,13.2h0.1l6-13.2h3.8L502.8,376.8z"/>
		<path class="st0" d="M561.2,390.3c-3.3,0-6.1-0.6-8-1.6v-26.9c1.6-0.9,4.4-1.6,7.6-1.6c6.4,0,9.9,3.1,9.9,7.3
			c0,4.2-3.1,6.3-5.7,6.8v0.1c2.7,0.5,6.8,3.1,6.8,7.6C571.8,387.8,567.2,390.3,561.2,390.3z M560.8,362.4c-1.5,0-2.7,0.2-3.9,0.6
			v10.4h1.9c6,0,8.1-1.9,8.1-5.7C566.9,364.1,564.8,362.4,560.8,362.4z M558.9,375.4h-2v11.7c1.1,0.5,2.3,0.7,4.1,0.7
			c3.8,0,6.8-1.5,6.8-5.8C567.8,377.4,565.2,375.4,558.9,375.4z"/>
		<path class="st0" d="M583.4,389.8v-29.3h3.9v29.3H583.4z"/>
		<path class="st0" d="M600.1,389.8v-29.3h13.6v2.6H604v10.2h8.7v2.6H604v11.2h9.7v2.6L600.1,389.8L600.1,389.8z"/>
		<path class="st0" d="M642.6,389.8l-12.5-21.4c-1.1-1.8-1.9-3.5-1.9-3.5h-0.1c0,0,0.1,1.8,0.1,3.6v21.3h-3.3v-29.3h4.1l12,20.6
			c1.1,1.8,1.7,3.1,1.7,3.1h0.1c0,0-0.1-1.4-0.1-3.2v-20.5h3.3v29.3H642.6L642.6,389.8z"/>
		<path class="st0" d="M658.7,389.8v-29.3h13.6v2.6h-9.7v10.2h8.7v2.6h-8.7v11.2h9.7v2.6L658.7,389.8L658.7,389.8z"/>
		<path class="st0" d="M689,390.3c-3.3,0-5.3-0.6-6.8-1.6l1-2.7c1.1,0.7,2.8,1.4,5.1,1.4c3.4,0,5.5-2.2,5.5-5.5
			c0-2.6-1.5-4.2-5.1-5.6c-4.9-2-6.2-5-6.2-7.8c0-4.4,3.2-8.2,8.3-8.2c2.7,0,4.7,0.7,6,1.6l-0.9,2.5c-1-0.6-2.7-1.4-4.7-1.4
			c-3.1,0-4.8,2-4.8,5.2c0,3,2.2,4.3,4.9,5.4c5.8,2.3,6.6,5.7,6.6,8.3C697.9,386.7,694.2,390.3,689,390.3z"/>
		<path class="st0" d="M716.2,363.2v26.7h-3.9v-26.7h-5.8v-2.6h15.6v2.6H716.2z"/>
		<path class="st0" d="M747.6,389.8l-2.8-8.8h-10.1l-2.8,8.8h-3.6l9.9-29.3h3.5l9.9,29.3H747.6z M740.8,367.6
			c-0.7-2.3-0.8-3.5-0.8-3.5h-0.1c0,0-0.2,1.2-0.9,3.5l-3.5,11.1h8.7L740.8,367.6z"/>
		<path class="st0" d="M775.5,389.8l-9.6-13.7h-0.1v13.7h-3.9v-28.2c1.5-0.9,4.1-1.6,7.3-1.6c6.7,0,10,3.2,10,8.7c0,5-3.5,8-8.9,8
			v0.1l9.6,12.9h-4.4V389.8z M769.1,362.4c-1.5,0-2.6,0.2-3.3,0.6v12.3c0.4,0.1,1.5,0.3,2.5,0.3c4.8,0,7.1-2.4,7.1-6.6
			C775.3,364.5,773.4,362.4,769.1,362.4z"/>
	</g>
	<path class="st0" d="M778,284.4c-0.7-23.2-19.4-41.3-42.5-41.3c-23.5,0-42.6,19.1-42.6,42.6s19,42.2,42.5,42.2h15.2h17.3
		c5.6,0,10.2-4.1,10.2-9.7L778,284.4z M761.8,287.8v21.1c0,1.7-1.4,3-3,3h-24.9c-0.2,0-0.4,0-1-0.1c-13.6-1.3-23.9-12.4-23.9-26.1
		c0-14.6,11.9-26.5,26.5-26.5s26.5,11.9,26.5,26.5c0,0.3,0,0.6,0,1v0.6L761.8,287.8z"/>
	<path class="st0" d="M431.2,243.4c-21.4,2-34.7,17.5-34.7,40.5v43c0,0.6,0.5,1,1,1h16c0.5,0,1-0.5,1-1v-43.3
		c0-13,7.4-20.9,19.4-22.1c3.4-0.3,14.2,0,14.2,0v-18.1C448.1,243.3,432.9,243.3,431.2,243.4z"/>
	<path class="st0" d="M256.5,243.3c-2.7,0-4.5,0-6.4,0c-2.1,0-3.6,0-6.5,0h-0.5h-0.5h-0.5c-0.3,0-0.6,0-0.8,0
		c-5.2,0-9.2-4.3-9.3-9.5c0-2.2,0-11.1,0-20.1v-0.6v-0.7c0-0.3-0.1-0.5-0.3-0.7s-0.4-0.3-0.7-0.3h-16c-0.6,0-1,0.4-1,1v114.5
		c0,0.5,0.4,1,1,1h16c0.6,0,1-0.5,1-1v-62.4c0-1.7,1.4-3.1,3-3.1h21.1c13.7,0,25.1,10.1,25.1,23.8c0,1.1,0,6.7,0,6.7v33.9v1
		c0,0.3,0.1,0.5,0.3,0.7c0.2,0.2,0.5,0.3,0.7,0.3h16.1c0.5,0,1-0.5,1-1v-1v-38.4c0-0.6,0-1.2,0-1.8
		C299.4,262.2,279.9,243.3,256.5,243.3z"/>
	<path class="st0" d="M361.6,295.1c0.8,0,1.5,0,2.3,0c6.2,0,21.6,0,22.6-16.4c0.5-7.7-2.6-16.6-8.9-23.3
		c-5.3-5.6-14.1-12.1-29.8-12.1c-11.5,0-21.8,4.2-29.8,12.3c-7.9,8-12.3,18.7-12.3,30.1s4.4,22.1,12.5,30.1c8,8,18.8,12.1,30.1,12.1
		h0.6l0,0c1.4,0,2.1,0,26.6,0h5.5c1.2,0,1.2-0.5,1.2-1.1V313c0-0.6-0.5-1-1-1h-1h-27h-4.5h-0.3c-9.6,0-19.4-4.9-24.4-16.8h37.3
		L361.6,295.1z M324,279.1c3.1-13.6,14.1-19.7,24.3-19.9h0.5c11.7,0,20.2,7.4,21.5,13.7c0.5,2.3,0.4,4-0.4,5
		c-0.7,0.8-1.9,1.2-3.7,1.2L324,279.1L324,279.1z"/>
	<path class="st0" d="M589.8,243.1c-23.5,0-42.6,19.1-42.6,42.6s19.1,42.6,42.6,42.6s42.6-19.1,42.6-42.6
		C632.4,262.2,613.3,243.1,589.8,243.1z M589.7,311.9c-14.6,0-26.4-11.7-26.4-26.2c0-14.6,11.8-26.4,26.5-26.4
		c14.6,0,26.5,11.9,26.5,26.4C616.2,300.3,604.3,311.9,589.7,311.9z"/>
	<path class="st0" d="M499.5,243.3c-2.5,0-7.2,0.1-10.6,0h-0.7c-1.6,0-3.2,0-3.6,0c-5.3,0-9.6-4.6-9.6-9.9v-20v-1c0-0.6-0.5-1-1-1
		h-15.9c-0.5,0-1,0.4-1,1v1v73.8c0.8,23,19.5,41,42.6,41c23.5,0,42.6-19.1,42.6-42.6C542.3,262.2,523,243.3,499.5,243.3z
		 M499.2,311.9c-14.3,0-24-11.5-24.2-25.7v-24.8c0-1.7,1.3-2.2,3-2.2h21.7c14.6,0,26.4,11.8,26.4,26.4
		C526.2,300.3,513.8,311.9,499.2,311.9z"/>
	<g>
		<path class="st0" d="M793.3,308.4c-5.4,0-9.8,4.4-9.8,9.8s4.4,9.8,9.8,9.8c5.4,0,9.8-4.4,9.8-9.8S798.7,308.4,793.3,308.4z
			 M793.3,327c-4.8,0-8.8-4-8.8-8.8c0-4.9,3.9-8.9,8.8-8.9c4.8,0,8.8,4,8.8,8.9S798.2,327,793.3,327z"/>
		<path class="st0" d="M797.9,315.9c0-2-1.3-3.2-3.4-3.2h-4.9v10.9h1v-4.5h3.5l2.5,4.5h1.2l-2.6-4.6
			C796.9,318.8,797.9,317.6,797.9,315.9z M794.6,318.1h-3.9v-4.4h3.9c0.9,0,2.4,0.3,2.4,2.2C797,317.5,795.8,318.1,794.6,318.1z"/>
	</g>
	<path class="st0" d="M673,243.4c-21.4,2-34.7,17.5-34.7,40.5v43c0,0.6,0.5,1,1,1h16c0.5,0,1-0.5,1-1v-43.3c0-13,7.3-20.9,19.4-22.1
		c3.3-0.3,17.3,0,17.3,0v-18.1C693,243.3,674.8,243.3,673,243.4z"/>
	<path class="st0" d="M105,243.7L105,243.7c0.1-0.2,0.2-0.5,0.4-0.8C105.2,243.1,105.1,243.4,105,243.7L105,243.7z"/>
	<path class="st0" d="M56,256.8c4.1,1.3,9.2,2.9,15.6,4.9c0.1,0,0.1,0,0.2,0.1l1.1,0.4c16.1,5.1,24.6,14.4,29.2,22.4v-24.9
		c0,0,1.3-28.3-30.9-38.5C38.9,211,38.9,211,38.9,211v27C38.8,237.9,38.6,250.4,56,256.8z"/>
	<path class="st0" d="M108,284.6c4.5-8,13.1-17.3,29.2-22.4l1.2-0.4c0.1,0,0.1,0,0.2-0.1c4.9-1.5,9-2.8,12.5-3.9
		c2.9-1,5.5-2,7.8-3.1c12.6-6.7,12.5-16.9,12.5-16.9v-27c0,0,0,0-32.3,10.2c-32.2,10.2-30.9,38.5-30.9,38.5L108,284.6L108,284.6z"/>
	<path class="st0" d="M104.2,241.8c0.3,0.6,0.6,1.3,0.8,1.9l0,0c0.1-0.3,0.2-0.6,0.4-0.8c0.2-0.4,0.3-0.7,0.5-1.1
		c3.9-8.8,12.4-20.4,31.3-26.4l2.8-0.9c-3.6-16-17.9-28-35-28s-31.3,12-34.9,28l3,0.9C91.7,221.3,100.3,233,104.2,241.8z"/>
	<path class="st0" d="M102,328.9V306c0-7.4-1.9-14.3-7.8-22.6c-4-5.7-11.8-12-23.2-15.6c-5.2-1.6-9.6-3-13.2-4.2l0,0
		c-12.1-4-16.4-8.7-18-11.6c-0.6-1-0.9-2.7-0.9-2.8l-0.2,29.4c0,0-2.2,29.1,33.8,41.4L102,328.9L102,328.9z"/>
	<path class="st0" d="M108.1,328.9V306c0-7.4,1.9-14.3,7.8-22.6c4-5.7,11.8-12,23.2-15.6c5.2-1.6,9.6-3,13.2-4.2l0,0
		c12.1-4,16.4-8.7,18-11.6c0.6-1,0.9-2.7,0.9-2.8l0.1,29.4c0,0,2.2,29.1-33.8,41.4L108.1,328.9L108.1,328.9z"/>
</g>
</svg>
