<?xml version="1.0" encoding="utf-8"?>
<!-- Generator: Adobe Illustrator 23.0.1, SVG Export Plug-In . SVG Version: 6.00 Build 0)  -->
<svg version="1.1" id="Capa_1" xmlns="http://www.w3.org/2000/svg" xmlns:xlink="http://www.w3.org/1999/xlink" x="0px" y="0px"
	 viewBox="0 0 841.89 595.28" style="enable-background:new 0 0 841.89 595.28;" xml:space="preserve">
<style type="text/css">
	.st0{fill:#005532;}
	.st1{fill:none;}
	.st2{fill:#B3DB11;}
	.st3{fill:#FFBF00;}
	.st4{fill:#FFFFFF;}
</style>
<g>
	<g>
		<path d="M235,389.84l-12.48-21.39c-1.07-1.83-1.88-3.53-1.88-3.53h-0.08c0,0,0.12,1.79,0.12,3.62v21.31h-3.28v-29.32h4.13
			l11.98,20.58c1.07,1.79,1.66,3.11,1.66,3.11h0.08c0,0-0.12-1.41-0.12-3.24v-20.45h3.28v29.32H235z"/>
		<path d="M260.19,390.3c-5.59,0-9.12-3.84-9.12-8.82v-20.97h3.92v20.92c0,3.71,2.51,5.8,5.41,5.8c2.86,0,5.37-2.09,5.37-5.8v-20.92
			h3.58v20.97C269.34,386.47,265.8,390.3,260.19,390.3z"/>
		<path d="M289.76,363.16v26.67h-3.92v-26.67H280v-2.64h15.59v2.64H289.76z"/>
		<path d="M319.92,389.84l-9.62-13.68h-0.09v13.68h-3.88v-28.16c1.53-0.85,4.13-1.58,7.28-1.58c6.65,0,10.06,3.24,10.06,8.69
			c0,4.99-3.54,7.97-8.91,8.05v0.09l9.59,12.91H319.92z M313.53,362.39c-1.45,0-2.56,0.22-3.32,0.64v12.27
			c0.43,0.13,1.49,0.26,2.51,0.26c4.78,0,7.08-2.38,7.08-6.6C319.8,364.48,317.84,362.39,313.53,362.39z"/>
		<path d="M335.56,389.84v-29.32h3.92v29.32H335.56z"/>
		<path d="M362.33,390.26c-7.03,0-10.99-6.77-10.99-15.08c0-8.14,3.92-15.09,10.99-15.09c2.6,0,4.44,0.68,5.71,1.62l-0.93,2.3
			c-0.89-0.55-2.26-1.15-4.09-1.15c-5.63,0-7.59,6.09-7.59,12.31c0,6.35,2.18,12.14,7.54,12.14c1.79,0,2.98-0.47,4.09-1.15
			l1.02,2.47C366.81,389.62,364.72,390.26,362.33,390.26z"/>
		<path d="M378.91,389.84v-29.32h3.92v29.32H378.91z"/>
		<path d="M405.3,390.26c-7.63,0-10.61-6.69-10.61-15.08c0-8.31,2.98-15.09,10.61-15.09c7.58,0,10.56,6.78,10.56,15.09
			C415.87,383.57,412.88,390.26,405.3,390.26z M405.3,362.69c-5.37,0-6.65,6.43-6.65,12.36c0,5.93,1.11,12.31,6.65,12.31
			c5.54,0,6.6-6.39,6.6-12.31C411.91,369.13,410.62,362.69,405.3,362.69z M405.22,358.31h-2.13l2.98-5.84
			c1.54-0.94,3.62-0.98,4,0.05L405.22,358.31z"/>
		<path d="M445.14,389.84l-12.48-21.39c-1.06-1.83-1.87-3.53-1.87-3.53h-0.09c0,0,0.13,1.79,0.13,3.62v21.31h-3.28v-29.32h4.13
			l11.98,20.58c1.06,1.79,1.66,3.11,1.66,3.11h0.09c0,0-0.13-1.41-0.13-3.24v-20.45h3.28v29.32H445.14z"/>
		<path d="M502.83,376.84v13h-3.92v-13l-7.97-16.32h4.22l5.84,13.25h0.09l6.05-13.25h3.75L502.83,376.84z"/>
		<path d="M561.2,390.26c-3.32,0-6.14-0.6-8.01-1.62v-26.92c1.62-0.94,4.43-1.62,7.63-1.62c6.43,0,9.88,3.07,9.88,7.33
			c0,4.17-3.07,6.31-5.71,6.81v0.09c2.73,0.51,6.82,3.11,6.82,7.58C571.81,387.79,567.25,390.26,561.2,390.26z M560.78,362.35
			c-1.54,0-2.69,0.22-3.88,0.64v10.44h1.92c6.05,0,8.09-1.87,8.09-5.7C566.91,364.14,564.78,362.35,560.78,362.35z M558.86,375.39
			h-1.96v11.67c1.1,0.47,2.34,0.68,4.13,0.68c3.84,0,6.82-1.54,6.82-5.8C567.85,377.39,565.21,375.39,558.86,375.39z"/>
		<path d="M583.36,389.84v-29.32h3.92v29.32H583.36z"/>
		<path d="M600.12,389.84v-29.32h13.59v2.64h-9.67v10.22h8.69v2.6h-8.69v11.2h9.67v2.64H600.12z"/>
		<path d="M642.64,389.84l-12.48-21.39c-1.06-1.83-1.87-3.53-1.87-3.53h-0.08c0,0,0.13,1.79,0.13,3.62v21.31h-3.28v-29.32h4.13
			l11.97,20.58c1.06,1.79,1.66,3.11,1.66,3.11h0.08c0,0-0.13-1.41-0.13-3.24v-20.45h3.28v29.32H642.64z"/>
		<path d="M658.71,389.84v-29.32h13.59v2.64h-9.67v10.22h8.69v2.6h-8.69v11.2h9.67v2.64H658.71z"/>
		<path d="M689.01,390.26c-3.32,0-5.29-0.64-6.82-1.62l1.02-2.73c1.11,0.68,2.77,1.37,5.12,1.37c3.36,0,5.49-2.18,5.49-5.5
			c0-2.6-1.45-4.18-5.11-5.63c-4.9-1.96-6.22-4.98-6.22-7.84c0-4.44,3.15-8.23,8.26-8.23c2.69,0,4.73,0.68,6.01,1.58l-0.93,2.46
			c-1.02-0.64-2.69-1.36-4.65-1.36c-3.11,0-4.85,2.04-4.85,5.16c0,3.03,2.21,4.3,4.9,5.37c5.79,2.26,6.64,5.67,6.64,8.27
			C697.87,386.68,694.16,390.26,689.01,390.26z"/>
		<path d="M716.24,363.16v26.67h-3.92v-26.67h-5.84v-2.64h15.6v2.64H716.24z"/>
		<path d="M747.57,389.84l-2.77-8.78h-10.06l-2.85,8.78h-3.58l9.93-29.32h3.49l9.89,29.32H747.57z M740.75,367.59
			c-0.72-2.3-0.85-3.53-0.85-3.53h-0.08c0,0-0.17,1.23-0.89,3.53l-3.5,11.12h8.74L740.75,367.59z"/>
		<path d="M775.48,389.84l-9.63-13.68h-0.09v13.68h-3.88v-28.16c1.54-0.85,4.13-1.58,7.29-1.58c6.65,0,10.05,3.24,10.05,8.69
			c0,4.99-3.53,7.97-8.9,8.05v0.09l9.59,12.91H775.48z M769.09,362.39c-1.45,0-2.56,0.22-3.33,0.64v12.27
			c0.43,0.13,1.49,0.26,2.52,0.26c4.77,0,7.07-2.38,7.07-6.6C775.35,364.48,773.39,362.39,769.09,362.39z"/>
	</g>
	<path d="M777.98,284.44c-0.65-23.18-19.37-41.33-42.55-41.33c-23.49,0-42.59,19.1-42.59,42.58c0,23.5,19.03,42.22,42.53,42.22
		l15.15,0h17.35c5.56,0,10.16-4.15,10.16-9.7L777.98,284.44z M761.83,287.75l-0.03,21.15c0,1.68-1.37,3.04-3.04,3.04h-24.92
		c-0.17,0-0.39-0.02-0.95-0.12c-13.64-1.27-23.93-12.36-23.93-26.08c0-14.6,11.88-26.46,26.46-26.46
		c14.58,0,26.45,11.86,26.45,26.46c0,0.28-0.03,0.58-0.05,1.01l-0.05,0.61L761.83,287.75z"/>
	<path d="M431.16,243.43c-21.41,2-34.7,17.51-34.7,40.47v42.99c0,0.57,0.45,1.02,1.02,1.02h15.99c0.54,0,1-0.45,1-1.02v-43.34
		c0-12.98,7.35-20.91,19.39-22.11c3.35-0.32,14.25,0,14.25,0v-18.12C448.1,243.32,432.93,243.25,431.16,243.43z"/>
	<path d="M256.45,243.29c-2.74,0-4.51,0.02-6.35,0.01c-2.13-0.01-3.64-0.01-6.5-0.01h-0.47h-0.5h-0.49c-0.31,0-0.64,0-0.81,0
		c-5.18,0-9.21-4.27-9.26-9.49c-0.01-2.21-0.01-11.15-0.01-20.07v-0.65l0-0.68c0.01-0.26-0.11-0.52-0.29-0.72
		c-0.19-0.19-0.45-0.3-0.73-0.3h-16.09c-0.56,0-1.02,0.45-1.02,1.02v114.49c0,0.55,0.45,1.01,1.02,1.01h16.09
		c0.56,0,1.02-0.45,1.02-1.01v-62.4c0-1.67,1.37-3.07,3.04-3.07l21.09,0.03c13.72,0,25.08,10.11,25.08,23.83c0,1.07,0,6.72,0,6.72
		l0.01,33.88l0,1.01c0,0.28,0.11,0.53,0.3,0.72c0.18,0.19,0.45,0.3,0.71,0.3l16.1-0.01c0.55,0,1.02-0.45,1.02-1.02v-1.01l-0.05-38.4
		c0.03-0.61,0.04-1.2,0.04-1.8C299.38,262.19,279.94,243.29,256.45,243.29z"/>
	<path d="M361.61,295.09c0.75,0,1.52,0.02,2.34,0.02c6.25,0,21.64-0.02,22.61-16.36c0.45-7.71-2.59-16.65-8.88-23.32
		c-5.31-5.63-14.14-12.11-29.79-12.11c-11.54,0-21.82,4.21-29.81,12.27c-7.94,8-12.31,18.7-12.31,30.1
		c0,11.39,4.42,22.09,12.46,30.13c8.05,8.04,18.75,12.1,30.13,12.1h0.59l0,0c1.4,0,2.09,0.05,26.63,0h5.48
		c1.19,0,1.19-0.54,1.19-1.1v-13.86c0-0.56-0.46-1.02-1.02-1.02h-1.01l-27.01-0.02l-4.51,0h-0.34c-9.57,0-19.36-4.92-24.38-16.84
		h37.32L361.61,295.09z M323.98,279.13c3.07-13.65,14.14-19.69,24.27-19.85h0.49c11.74,0,20.16,7.4,21.54,13.67
		c0.5,2.3,0.36,4.02-0.41,4.97c-0.66,0.81-1.9,1.22-3.69,1.22H323.98z"/>
	<path d="M589.79,243.11c-23.48,0-42.6,19.1-42.6,42.58c0,23.5,19.11,42.6,42.6,42.6c23.49,0,42.59-19.1,42.59-42.6
		C632.38,262.21,613.28,243.11,589.79,243.11z M589.74,311.94c-14.58,0-26.4-11.66-26.4-26.25c0-14.58,11.85-26.44,26.45-26.44
		c14.59,0,26.45,11.86,26.45,26.44C616.24,300.28,604.32,311.94,589.74,311.94z"/>
	<path d="M499.55,243.31c-2.53,0-7.22,0.06-10.62,0.02l-0.68-0.02c-1.62-0.02-3.18,0-3.63,0c-5.3,0-9.58-4.65-9.58-9.93l-0.01-19.99
		v-1.02c0-0.56-0.46-1.01-1.02-1.01h-15.85c-0.55,0-1.02,0.45-1.02,1.01v1.02l0.04,73.83c0.82,23.03,19.52,41.05,42.56,41.05
		c23.48,0,42.58-19.1,42.58-42.6C542.33,262.21,523.02,243.31,499.55,243.31z M499.24,311.94c-14.32,0-23.96-11.45-24.19-25.74
		v-24.76c0-1.67,1.32-2.16,2.98-2.16c0,0,21.71-0.01,21.72-0.01c14.58,0,26.44,11.83,26.44,26.41
		C526.19,300.28,513.81,311.94,499.24,311.94z"/>
	<g>
		<path d="M793.31,308.38c-5.39,0-9.78,4.39-9.78,9.81c0,5.39,4.39,9.81,9.78,9.81c5.4,0,9.81-4.42,9.81-9.81
			C803.12,312.76,798.7,308.38,793.31,308.38z M793.31,327.02c-4.85,0-8.78-3.95-8.78-8.83c0-4.91,3.93-8.87,8.78-8.87
			c4.85,0,8.81,3.96,8.81,8.87C802.12,323.07,798.15,327.02,793.31,327.02z"/>
		<path d="M797.94,315.94c0-1.98-1.27-3.17-3.39-3.17h-4.87v10.87h1.01v-4.52h3.54l2.5,4.52h1.17l-2.6-4.58
			C796.89,318.78,797.94,317.58,797.94,315.94z M794.61,318.13h-3.93v-4.39h3.87c0.9,0,2.4,0.27,2.4,2.2
			C796.95,317.45,795.77,318.13,794.61,318.13z"/>
	</g>
	<path d="M673,243.43c-21.41,2-34.7,17.51-34.7,40.47v42.99c0,0.57,0.46,1.02,1.02,1.02h15.99c0.55,0,1.01-0.45,1.01-1.02v-43.34
		c0-12.98,7.35-20.91,19.39-22.11c3.35-0.32,17.3,0,17.3,0v-18.12C693,243.32,674.77,243.25,673,243.43z"/>
	<path d="M105,243.7c0.01,0.02,0.02,0.04,0.02,0.06c0.11-0.3,0.23-0.6,0.36-0.9c-0.13,0.28-0.26,0.56-0.37,0.83
		C105,243.69,105,243.69,105,243.7z"/>
	<path d="M55.95,256.82c4.1,1.3,9.21,2.92,15.6,4.94c0.07,0.02,0.14,0.05,0.22,0.07l1.11,0.35c16.05,5.08,24.61,14.36,29.15,22.39
		v-24.93c0,0,1.32-28.29-30.92-38.49c-32.26-10.21-32.26-10.21-32.26-10.21v26.96C38.85,237.9,38.62,250.44,55.95,256.82z"/>
	<path d="M108.02,284.57c4.54-8.03,13.09-17.31,29.15-22.39l1.16-0.36c0.06-0.02,0.12-0.05,0.17-0.06
		c4.85-1.53,8.97-2.83,12.46-3.94c2.94-1.01,5.54-2.04,7.77-3.05c12.65-6.68,12.47-16.86,12.47-16.86v-26.96c0,0,0,0-32.26,10.21
		c-32.23,10.21-30.92,38.49-30.92,38.49V284.57z"/>
	<path d="M104.2,241.77c0.29,0.65,0.56,1.3,0.81,1.93c0,0,0,0,0.01-0.01c0.11-0.27,0.24-0.55,0.37-0.83
		c0.15-0.35,0.3-0.72,0.47-1.09c3.88-8.76,12.45-20.44,31.26-26.39l2.78-0.88c-3.58-16.03-17.88-28.03-34.98-28.03
		c-17.08,0-31.35,11.97-34.95,27.96l2.98,0.95C91.74,221.33,100.32,233.01,104.2,241.77z"/>
	<path d="M102.04,328.87v-22.93c0-7.35-1.86-14.3-7.78-22.61c-4.04-5.68-11.76-12.01-23.21-15.63c-5.22-1.65-9.58-3.03-13.25-4.19
		c0,0,0,0-0.01,0c-12.08-4.05-16.41-8.74-17.96-11.64c-0.57-1-0.87-2.71-0.87-2.78l-0.15,29.39c0,0-2.24,29.12,33.82,41.38
		l29.35,8.98L102.04,328.87z"/>
	<path d="M108.14,328.87v-22.93c0-7.35,1.86-14.3,7.79-22.61c4.04-5.68,11.76-12.01,23.21-15.63c5.22-1.65,9.58-3.03,13.25-4.19
		c0,0,0,0,0.01,0c12.08-4.05,16.41-8.74,17.96-11.64c0.58-1,0.87-2.71,0.87-2.78l0.15,29.39c0,0,2.24,29.12-33.82,41.38l-29.36,8.98
		L108.14,328.87z"/>
</g>
</svg>
